<?xml version="1.0" encoding="UTF-8"?>
<svg version="1.1" viewBox="0 0 2048 2048" width="100%" height="100%" xmlns="http://www.w3.org/2000/svg">
<path transform="translate(0)" d="m0 0h2048v2048h-2048z" fill="#2C58A1"/>
<path transform="translate(1389,903)" d="m0 0h26l19 3 21 6 2 2v3h72l1 1v28l-5 3-31 9 2 1 3 7 1 6v18l-2 11-8 20-7 9-10 9-15 9-14 6-16 4-7 1h-46l-4 15-1 6 16 4 30 2 37 2 7 2 22 3 7 3 16 9 8 9 6 12 1 4v33l-3 11-7 14-8 10-12 9-16 9-12 6-21 6-16 2h-46l-22-4-23-8-11-6-10-9-9-14-4-13v-18l3-10 7-10 8-7 12-6h9l8 3-4-2v-3l-10-2-5-5-7-14-3-13 1-12 3-8 4-3 3-6 9-8 3-9 3-1-9-5-8-7-9-14-6-13-2-14v-10l2-15 5-13 6-11 9-10 10-9 16-9 21-7z" fill="#859FC7"/>
<path transform="translate(878,800)" d="m0 0 5 1v290l10 1 3 2 1 4 13 4 10 2 16-1 16-3 11-9 5-6 8-19 4-13 1-5 1-17v-13l-2-22-4-14-8-16-5-7-8-4-16-2h-28v-34l1-7 6-2 12-3 10-3 9-1h19l13 5 10 4 11 7 10 9 5 5 6 7 8 14 7 19 4 19 2 15v39l-8 33-5 12-8 16-7 9-9 10-10 8-17 9-18 6-9 2-18 1-14-2-11-4-13-8-11-7-11-6v17l-1 4-11 1h-44v-55l1-13 1-28v-93l-1-19v-137l5-1z" fill="#86A0C8"/>
<path transform="translate(1537,801)" d="m0 0h58l2 1v17l-1 1 1 11v75l-1 20 23-12 20-8 14-3h24l13 4 12 5 12 9 12 11 5 6 5 10 5 16 3 18 2 21 1 70v74h-63l-1-166-4-12-7-10-8-4-13-3h-9l-16 3-12 5-10 7-3 1-2 4-3 4-1 7v54l1 6 1-30h1v92l-1 42-58 1-2-1-1-49z" fill="#859FC7"/>
<path transform="translate(707,903)" d="m0 0h22l11 3 12 5 5 3v2l5 2 13 12 10 13 5 9 2 11 1 14 1 34v135l-1 1h-56l-1-1-1-159-2-10-6-12-4-5-12-6-7-2h-17l-12 3-15 8-12 11-2 4v169h-59l-4-2v-83l1-2v-113l1-34 1-5h27l22 1 1 2 2 13 1 10 14-10 4-3 16-8 11-5 16-4z" fill="#86A0C8"/>
<path transform="translate(456,903)" d="m0 0h15l18 3 21 6 16 9 13 11 8 9 8 13 9 19 2 16v47h-123l-1-4 1-31 1-1h69l-2-19-3-9-7-9-8-7-13-6-7-2h-18l-14 4-9 5-7 6-8 13-6 15-2 14v34l2 14 5 15 8 15 8 9 9 6 9 3 12 2h24l12-3 18-8 17-9h6l8 4 7 6 10 14 2 5-1 5-11 7-10 6-9 6-25 10-21 5-16 2h-13l-18-3-19-5-21-10-11-8-12-12-10-14-9-17-6-17-5-23-1-6v-24l3-20 4-15 4-10 10-17 9-11 8-9 15-11 15-8 16-6 14-3z" fill="#86A0C8"/>
<path transform="translate(1804,836)" d="m0 0 43 1-1 72 64 1v44h-64l1 23v118l6 1 6 5h10l9-3 7-4 6 1 4 3 5 2 3 6 1 9 5 2 5 5 1 5-7 8-14 8-16 5-12 3-7 1h-15l-18-4-14-7-12-11-7-10-3-10-1-6-2 1-2-3-1-31v-40l1-77h-27l-7-3-1-3v-27l2-4 8-4 14-2h16l2-18 7-39 4-17z" fill="#86A0C8"/>
<path transform="translate(153,801)" d="m0 0h57v345l-3 1h-55l-6-1v-71h1l2 59 1-78 1-7v-84l-2-72v-21l-1-7-1 87h-1v-150z" fill="#86A0C8"/>
<path transform="translate(1183,902)" d="m0 0 12 1 13 4 4 3v10l-4 39-1 5h-12l-14-1h-24l-11 4-13 10-8 11-5 10-1 6 1 6v137h-56l-7-1v-19h1v-28h-1l-1-5v-49l1-12v-44l1-7v-70l4-4h18l25 1 6 1 3 33h3l24-24 16-11 11-4z" fill="#859FC7"/>
<path transform="translate(316,908)" d="m0 0 49 1 1 2-4 6-9 10-9 11-11 13-9 11-9 10-9 11-9 10-9 11-7 8 1 4 10 13 12 17 11 17 10 15 11 15 24 36 11 13 3 4-1 1h-64l-5-3-9-11-29-43-11-16-21-31-3-3-10-3-2-2-1-15v-14l2-5 6-5 5-2 13-16 11-13 10-13 8-8 1-2h2l2-4 8-11 4-5 6-9 3-2z" fill="#86A0C8"/>
<path transform="translate(1228,908)" d="m0 0h57l1 238-1 1h-57l-1-1v-236z" fill="#86A0C8"/>
<path transform="translate(1351,1128)" d="m0 0 29 5 5 1 38 1 27 2 8 3 7 8 2 5v9l-4 9-6 7-8 4-20 5-10 1h-17l-20-2-16-4-6-4-5-6-4-8v-8l4-9 5-6 6-2v-2l-5 2-5-5-7-4z" fill="#2C58A1"/>
<path transform="translate(1398,946)" d="m0 0h14l12 2 8 4 7 6 5 8 3 10v10l-2 9-6 12-7 7-10 5-10 2h-14l-9-2-10-6-9-8-4-9-1-4v-19l4-11 7-8 11-6z" fill="#2C58A1"/>
<path transform="translate(1227,801)" d="m0 0h57l2 3 2-2v9h-1v19l-1 35-1 1h-57l-1-1z" fill="#86A0C8"/>
</svg>
